<svg width="245" height="49" viewBox="0 0 245 49" fill="none" xmlns="http://www.w3.org/2000/svg">
<rect width="245" height="49" rx="24.5" fill="#008DFF"/>
<path d="M79.6663 17L64.9997 31.6667L58.333 25" stroke="white" stroke-width="3" stroke-linecap="round" stroke-linejoin="round"/>
<path d="M106.323 21.0726C106.255 20.3852 105.962 19.8511 105.446 19.4706C104.929 19.09 104.227 18.8999 103.341 18.9001C102.738 18.9002 102.23 18.9856 101.815 19.1561C101.4 19.321 101.082 19.5512 100.86 19.8467C100.644 20.1422 100.536 20.4774 100.536 20.8524C100.525 21.1649 100.59 21.4377 100.732 21.6706C100.88 21.9035 101.081 22.1051 101.337 22.2755C101.592 22.4403 101.888 22.5851 102.223 22.71C102.558 22.8292 102.916 22.9314 103.297 23.0166L104.865 23.3912C105.626 23.5614 106.325 23.7886 106.961 24.0725C107.598 24.3564 108.149 24.7057 108.615 25.1204C109.08 25.5351 109.441 26.0236 109.697 26.586C109.958 27.1485 110.091 27.7933 110.097 28.5206C110.091 29.5888 109.818 30.515 109.278 31.2992C108.743 32.0777 107.971 32.683 106.959 33.1151C105.953 33.5415 104.74 33.7548 103.32 33.7552C101.911 33.7555 100.683 33.5399 99.6381 33.1083C98.5984 32.6768 97.7861 32.0378 97.2011 31.1913C96.6217 30.3392 96.318 29.2853 96.2899 28.0296L99.861 28.0287C99.9006 28.614 100.068 29.1025 100.363 29.4945C100.664 29.8808 101.065 30.1733 101.565 30.3721C102.071 30.5651 102.642 30.6616 103.278 30.6614C103.903 30.6613 104.446 30.5703 104.906 30.3883C105.372 30.2064 105.733 29.9535 105.988 29.6295C106.244 29.3056 106.372 28.9334 106.372 28.513C106.372 28.1209 106.256 27.7914 106.023 27.5244C105.796 27.2574 105.461 27.0302 105.018 26.8428C104.58 26.6554 104.043 26.4851 103.407 26.3319L101.506 25.855C100.035 25.4974 98.8731 24.9381 98.021 24.1769C97.169 23.4157 96.7459 22.3903 96.7519 21.1005C96.7465 20.0437 97.028 19.1203 97.5964 18.3304C98.1704 17.5405 98.9575 16.9238 99.9576 16.4804C100.958 16.037 102.094 15.8151 103.367 15.8148C104.662 15.8145 105.793 16.0358 106.759 16.4788C107.73 16.9217 108.486 17.538 109.025 18.3277C109.565 19.1173 109.843 20.032 109.86 21.0718L106.323 21.0726ZM118.475 33.7601C117.129 33.7604 115.97 33.488 114.998 32.9427C114.032 32.3918 113.288 31.6136 112.766 30.608C112.243 29.5968 111.982 28.4008 111.983 27.0202C111.983 25.6736 112.245 24.4917 112.768 23.4745C113.291 22.4573 114.027 21.6646 114.976 21.0961C115.93 20.5277 117.05 20.2434 118.334 20.2431C119.197 20.2429 120.001 20.3819 120.746 20.6601C121.496 20.9327 122.149 21.3444 122.706 21.8954C123.268 22.4464 123.705 23.1395 124.018 23.9747C124.33 24.8041 124.486 25.7757 124.486 26.8893L124.485 27.8865L113.431 27.8891L113.432 25.6391L121.068 25.6373C121.068 25.1146 120.955 24.6515 120.728 24.2482C120.501 23.8448 120.185 23.5296 119.782 23.3024C119.384 23.0695 118.921 22.9532 118.393 22.9533C117.842 22.9534 117.353 23.0814 116.927 23.3372C116.506 23.5873 116.177 23.9254 115.938 24.3516C115.699 24.7721 115.577 25.2409 115.571 25.7579L115.571 27.8971C115.57 28.5449 115.69 29.1045 115.928 29.576C116.172 30.0476 116.516 30.4111 116.959 30.6667C117.402 30.9223 117.928 31.05 118.536 31.0498C118.939 31.0497 119.308 30.9928 119.644 30.8791C119.979 30.7654 120.266 30.5949 120.505 30.3676C120.743 30.1402 120.925 29.8618 121.05 29.5322L124.408 29.753C124.237 30.5598 123.888 31.2645 123.359 31.8669C122.836 32.4636 122.16 32.9297 121.331 33.2651C120.507 33.5948 119.555 33.7598 118.475 33.7601ZM133.82 20.4098L133.819 23.1371L125.935 23.139L125.936 20.4117L133.82 20.4098ZM127.727 17.2749L131.357 17.2741L131.354 29.4786C131.354 29.8138 131.405 30.0752 131.507 30.2627C131.61 30.4444 131.752 30.5723 131.933 30.6461C132.121 30.7199 132.337 30.7568 132.581 30.7567C132.752 30.7567 132.922 30.7424 133.093 30.714C133.263 30.6798 133.394 30.6542 133.485 30.6372L134.055 33.3387C133.873 33.3956 133.617 33.461 133.288 33.535C132.958 33.6146 132.558 33.663 132.086 33.6801C131.211 33.7144 130.444 33.5981 129.785 33.3312C129.132 33.0644 128.623 32.6497 128.26 32.0873C127.896 31.5249 127.718 30.8147 127.723 29.9567L127.727 17.2749ZM144.578 27.9243L144.58 20.4073L148.21 20.4064L148.207 33.4973L144.721 33.4981L144.722 31.1203L144.585 31.1203C144.29 31.8874 143.798 32.504 143.11 32.9701C142.428 33.4362 141.596 33.6693 140.613 33.6696C139.738 33.6698 138.968 33.4711 138.304 33.0735C137.639 32.676 137.119 32.1107 136.744 31.3779C136.375 30.645 136.188 29.7672 136.183 28.7445L136.185 20.4093L139.815 20.4084L139.813 28.0959C139.819 28.8686 140.026 29.4794 140.435 29.9281C140.844 30.3769 141.392 30.6012 142.08 30.601C142.517 30.6009 142.926 30.5014 143.307 30.3024C143.688 30.0978 143.995 29.7966 144.228 29.3988C144.467 29.001 144.583 28.5095 144.578 27.9243ZM151.114 20.4057L154.745 20.4048L154.742 34.1435C154.741 35.1548 154.542 35.9731 154.144 36.5982C153.746 37.2232 153.175 37.6808 152.431 37.9707C151.692 38.2607 150.809 38.4058 149.78 38.406C149.655 38.406 149.536 38.4032 149.422 38.3976C149.303 38.3976 149.178 38.3948 149.047 38.3891L149.048 35.5511C149.145 35.5567 149.23 35.5596 149.304 35.5595C149.372 35.5652 149.446 35.568 149.525 35.568C150.11 35.5679 150.52 35.4428 150.753 35.1927C150.991 34.9483 151.111 34.579 151.111 34.0847L151.114 20.4057ZM152.922 18.7178C152.387 18.7179 151.927 18.539 151.541 18.1812C151.155 17.8176 150.962 17.383 150.962 16.8773C150.962 16.3773 151.155 15.9483 151.542 15.5903C151.928 15.2265 152.388 15.0446 152.922 15.0445C153.468 15.0443 153.931 15.226 154.312 15.5896C154.698 15.9475 154.891 16.3764 154.891 16.8764C154.891 17.3821 154.697 17.8168 154.311 18.1805C153.93 18.5385 153.467 18.7176 152.922 18.7178ZM166.046 27.9192L166.048 20.4021L169.679 20.4013L169.676 33.4922L166.19 33.493L166.19 31.1152L166.054 31.1152C165.758 31.8823 165.267 32.4989 164.579 32.965C163.897 33.4311 163.065 33.6642 162.082 33.6644C161.207 33.6646 160.437 33.466 159.772 33.0684C159.108 32.6708 158.588 32.1056 158.213 31.3728C157.844 30.6399 157.657 29.7621 157.651 28.7394L157.653 20.4041L161.284 20.4033L161.282 28.0908C161.288 28.8635 161.495 29.4742 161.904 29.923C162.313 30.3718 162.861 30.5961 163.549 30.5959C163.986 30.5958 164.395 30.4963 164.776 30.2973C165.157 30.0927 165.463 29.7915 165.697 29.3937C165.935 28.9959 166.052 28.5044 166.046 27.9192ZM172.58 33.4915L172.583 20.4006L176.214 20.3997L176.21 33.4906L172.58 33.4915ZM174.407 18.7126C173.868 18.7128 173.405 18.5339 173.018 18.176C172.638 17.8125 172.447 17.3779 172.448 16.8722C172.448 16.3722 172.638 15.9432 173.019 15.5851C173.405 15.2214 173.869 15.0395 174.408 15.0393C174.948 15.0392 175.408 15.2209 175.789 15.5845C176.175 15.9423 176.368 16.3713 176.368 16.8713C176.368 17.3769 176.175 17.8116 175.788 18.1754C175.407 18.5334 174.947 18.7125 174.407 18.7126Z" fill="white"/>
</svg>
